0.0 0.0 0.0
5.0 0.0 0.0
10.0 0.0 0.0
15.0 0.0 0.0
20.0 0.0 0.0
25.0 0.0 0.0
30.0 0.0 0.0
35.0 0.0 0.0
40.0 0.0 0.0
45.0 0.0 0.0
50.0 0.0 0.0
55.0 0.0 0.0
61.25 0.4334397132563434 1.617619031890754
66.85359670105034 1.270780939603603 4.742619031890749
71.42891424835582 2.4549602582380157 9.16203641430666
74.66415231213736 3.9052778055434985 14.574695187959389
76.33883476483192 5.522896837434254 20.611731602266055
77.63292999034455 6.772896837434255 25.276795111727143
78.92702521585719 8.022896837434255 29.94185862118823
80.22112044136982 9.272896837434255 34.60692213064932
81.51521566688245 10.522896837434255 39.271985640110415
82.80931089239509 11.772896837434255 43.93704914957151
84.10340611790772 13.022896837434255 48.6021126590326
85.39750134342036 14.272896837434255 53.26717616849369
86.691596568933 15.522896837434255 57.93223967795478
87.98569179444563 16.772896837434256 62.597303187415875
89.27978701995826 18.022896837434256 67.26236669687697
90.5738822454709 19.272896837434256 71.92743020633806
91.86797747098353 20.522896837434256 76.59249371579915
93.16207269649617 21.772896837434256 81.25755722526024
94.4561679220088 23.022896837434256 85.92262073472133
94.68711464305791 23.848597727023737 92.33603971139287
94.8655765649444 24.48665037825921 97.29194933089644
95.0440384868309 25.124703029494682 102.2478589504
95.2225004087174 25.762755680730155 107.20376856990356
95.40096233060389 26.400808331965628 112.15967818940712
95.57942425249038 27.0388609832011 117.11558780891067
95.75788617437688 27.676913634436573 122.07149742841423
95.93634809626337 28.314966285672046 127.02740704791779
96.11481001814987 28.95301893690752 131.98331666742135
96.29327194003636 29.59107158814299 136.9392262869249
96.47173386192286 30.229124239378464 141.89513590642846
96.65019578380935 30.867176890613937 146.85104552593202
96.82865770569585 31.50522954184941 151.80695514543558
97.00711962758234 32.14328219308488 156.76286476493914
98.85046756606002 33.34947229566512 162.84679730331516
100.27489747054986 34.28154443286234 167.5480993546894
101.6993273750397 35.21361657005956 172.24940140606367
103.12375727952954 36.145688707256774 176.95070345743792
104.54818718401938 37.07776084445399 181.65200550881218
105.97261708850922 38.00983298165121 186.35330756018644
107.39704699299907 38.941905118848425 191.0546096115607
108.8214768974889 39.87397725604564 195.75591166293495
110.24590680197875 40.80604939324286 200.4572137143092
111.67033670646859 41.738121530440075 205.15851576568346
113.09476661095843 42.67019366763729 209.85981781705772
114.51919651544827 43.60226580483451 214.56111986843197
115.94362641993811 44.534337942031726 219.26242191980623
117.36805632442795 45.46641007922894 223.96372397118049
118.7924862289178 46.39848221642616 228.66502602255474
120.21691613340764 47.33055435362338 233.366328073929
121.64134603789748 48.262626490820594 238.06763012530325
123.06577594238732 49.19469862801781 242.7689321766775
124.49020584687716 50.12677076521503 247.47023422805177
125.914635751367 51.058842902412245 252.17153627942602
127.33906565585684 51.99091503960946 256.8728383308003
128.76349556034668 52.92298717680668 261.5741403821745
130.18792546483652 53.855059314003896 266.27544243354873
131.61235536932637 54.78713145120111 270.97674448492296
133.0367852738162 55.71920358839833 275.6780465362972
134.46121517830605 56.651275725595546 280.3793485876714
135.8856450827959 57.58334786279276 285.08065063904564
137.31007498728573 58.51541999998998 289.78195269041987
138.73450489177557 59.4474921371872 294.4832547417941
140.1589347962654 60.379564274384414 299.1845567931683
141.58336470075525 61.31163641158163 303.88585884454255
143.0077946052451 62.24370854877885 308.5871608959168
144.43222450973494 63.175780685976065 313.288462947291
145.85665441422478 64.10785282317327 317.98976499866524
147.28108431871462 65.03992496037048 322.69106705003946
148.70551422320446 65.9719970975677 327.3923691014137
150.1299441276943 66.9040692347649 332.0936711527879
151.55437403218414 67.83614137196211 336.79497320416215
152.97880393667398 68.76821350915932 341.4962752555364
154.40323384116382 69.70028564635653 346.1975773069106
155.82766374565367 70.63235778355374 350.89887935828483
157.2520936501435 71.56442992075095 355.60018140965906
158.67652355463335 72.49650205794816 360.3014834610333
160.1009534591232 73.42857419514537 365.0027855124075
161.52538336361303 74.36064633234258 369.70408756378174
162.94981326810287 75.29271846953979 374.40538961515597
164.3742431725927 76.224790606737 379.1066916665302
165.79867307708255 77.15686274393421 383.8079937179044
167.2231029815724 78.08893488113142 388.50929576927865
168.64753288606224 79.02100701832863 393.2105978206529
170.07196279055208 79.95307915552584 397.9118998720271
171.49639269504192 80.88515129272305 402.61320192340133
172.92082259953176 81.81722342992026 407.31450397477556
174.3452525040216 82.74929556711747 412.0158060261498
175.76968240851144 83.68136770431468 416.717108077524
177.19411231300128 84.61343984151189 421.41841012889824
178.61854221749113 85.5455119787091 426.1197121802725
180.04297212198097 86.47758411590631 430.8210142316467
181.4674020264708 87.40965625310352 435.5223162830209
182.89183193096065 88.34172839030073 440.22361833439516
184.3162618354505 89.27380052749794 444.9249203857694
185.74069173994033 90.20587266469515 449.6262224371436
187.16512164443017 91.13794480189236 454.32752448851784
188.58955154892 92.07001693908957 459.02882653989207
190.01398145340985 93.00208907628678 463.7301285912663
191.4384113578997 93.93416121348399 468.4314306426405
192.86284126238954 94.8662333506812 473.13273269401475
194.28727116687938 95.79830548787841 477.834034745389
195.71170107136922 96.73037762507562 482.5353367967632
197.13613097585906 97.66244976227283 487.23663884813743
198.5605608803489 98.59452189947004 491.93794089951166
199.98499078483874 99.52659403666725 496.6392429508859
